<svg xmlns="http://www.w3.org/2000/svg" width="1156.128" height="1097.073" viewBox="0 0 1156.128 1097.073">
  <g id="tttwinkle" transform="translate(4.723 -72.962)">
    <line id="Line_1211" data-name="Line 1211" x2="187" transform="translate(479.84 621.501)" fill="none" stroke="#5700a3" stroke-linecap="round" stroke-width="3" opacity="0.2"/>
    <line id="Line_1212" data-name="Line 1212" x2="94" transform="translate(526.45 618.221) rotate(4)" fill="none" stroke="#5700a3" stroke-linecap="round" stroke-width="3" opacity="0.59"/>
    <line id="Line_1213" data-name="Line 1213" x2="214" transform="translate(467.384 606.609) rotate(8)" fill="none" stroke="#5700a3" stroke-linecap="round" stroke-width="3" opacity="0.55"/>
    <line id="Line_1214" data-name="Line 1214" x1="842.107" y2="72.079" transform="matrix(0.978, 0.208, -0.208, 0.978, 168.983, 498.708)" fill="none" stroke="#5700a3" stroke-linecap="round" stroke-width="3" opacity="0.75"/>
    <line id="Line_1215" data-name="Line 1215" y1="95.56" x2="751.254" transform="matrix(0.961, 0.276, -0.276, 0.961, 225.435, 472.035)" fill="none" stroke="#5700a3" stroke-linecap="round" stroke-width="3" opacity="0.6"/>
    <line id="Line_1216" data-name="Line 1216" x1="855.777" y2="118.573" transform="matrix(0.94, 0.342, -0.342, 0.94, 191.536, 419.441)" fill="none" stroke="#5700a3" stroke-linecap="round" stroke-width="3" opacity="0.15"/>
    <line id="Line_1217" data-name="Line 1217" x1="47" transform="translate(551.872 611.948) rotate(24)" fill="none" stroke="#5700a3" stroke-linecap="round" stroke-width="3" opacity="0.65"/>
    <line id="Line_1218" data-name="Line 1218" x1="756.103" y2="162.757" transform="translate(277.747 372.164) rotate(28)" fill="none" stroke="#5700a3" stroke-linecap="round" stroke-width="3" opacity="0.27"/>
    <line id="Line_1219" data-name="Line 1219" x1="754.004" y2="183.714" transform="matrix(0.848, 0.53, -0.53, 0.848, 302.303, 343.823)" fill="none" stroke="#5700a3" stroke-linecap="round" stroke-width="3" opacity="0.88"/>
    <line id="Line_1220" data-name="Line 1220" x2="65" transform="translate(547.046 602.403) rotate(36)" fill="none" stroke="#5700a3" stroke-linecap="round" stroke-width="3" opacity="0.96"/>
    <line id="Line_1221" data-name="Line 1221" x2="273" transform="matrix(0.766, 0.643, -0.643, 0.766, 468.77, 533.758)" fill="none" stroke="#5700a3" stroke-linecap="round" stroke-width="3" opacity="0.23"/>
    <line id="Line_1222" data-name="Line 1222" x2="198" transform="matrix(0.719, 0.695, -0.695, 0.719, 502.124, 552.731)" fill="none" stroke="#5700a3" stroke-linecap="round" stroke-width="3" opacity="0.37"/>
    <line id="Line_1223" data-name="Line 1223" x2="44" transform="translate(558.622 605.148) rotate(48)" fill="none" stroke="#5700a3" stroke-linecap="round" stroke-width="3" opacity="0.26"/>
    <line id="Line_1224" data-name="Line 1224" x2="404" transform="translate(448.976 462.321) rotate(52)" fill="none" stroke="#5700a3" stroke-linecap="round" stroke-width="3" opacity="0.57"/>
    <line id="Line_1225" data-name="Line 1225" x2="135" transform="matrix(0.559, 0.829, -0.829, 0.559, 535.591, 565.54)" fill="none" stroke="#5700a3" stroke-linecap="round" stroke-width="3" opacity="0.2"/>
    <line id="Line_1226" data-name="Line 1226" x1="347" transform="translate(486.587 471.249) rotate(60)" fill="none" stroke="#5700a3" stroke-linecap="round" stroke-width="3"/>
    <line id="Line_1227" data-name="Line 1227" x1="242" transform="translate(520.299 512.743) rotate(64)" fill="none" stroke="#5700a3" stroke-linecap="round" stroke-width="3" opacity="0.87"/>
    <line id="Line_1228" data-name="Line 1228" x2="92" transform="matrix(0.375, 0.927, -0.927, 0.375, 556.113, 578.85)" fill="none" stroke="#5700a3" stroke-linecap="round" stroke-width="3" opacity="0.67"/>
    <line id="Line_1229" data-name="Line 1229" x1="65" transform="translate(563.297 590.596) rotate(72)" fill="none" stroke="#5700a3" stroke-linecap="round" stroke-width="3" opacity="0.28"/>
    <line id="Line_1230" data-name="Line 1230" x2="958.84" y2="107.17" transform="translate(509.348 143.357) rotate(76)" fill="none" stroke="#5700a3" stroke-linecap="round" stroke-width="3" opacity="0.39"/>
    <line id="Line_1231" data-name="Line 1231" x1="1043.268" y1="76.927" transform="translate(520.637 101.112) rotate(80)" fill="none" stroke="#5700a3" stroke-linecap="round" stroke-width="3" opacity="0.61"/>
    <line id="Line_1232" data-name="Line 1232" x1="990.574" y1="46.307" transform="translate(544.596 126.507) rotate(84)" fill="none" stroke="#5700a3" stroke-linecap="round" stroke-width="3" opacity="0.15"/>
    <line id="Line_1233" data-name="Line 1233" x1="814.73" y1="15.461" transform="translate(566.85 214.113) rotate(88)" fill="none" stroke="#5700a3" stroke-linecap="round" stroke-width="3" opacity="0.36"/>
    <line id="Line_1234" data-name="Line 1234" x1="205" transform="translate(576.918 519.062) rotate(92)" fill="none" stroke="#5700a3" stroke-linecap="round" stroke-width="3" opacity="0.78"/>
    <line id="Line_1235" data-name="Line 1235" x1="283" transform="translate(588.131 480.773) rotate(96)" fill="none" stroke="#5700a3" stroke-linecap="round" stroke-width="3" opacity="0.66"/>
    <line id="Line_1236" data-name="Line 1236" x2="319" transform="translate(601.035 464.424) rotate(100)" fill="none" stroke="#5700a3" stroke-linecap="round" stroke-width="3" opacity="0.36"/>
    <line id="Line_1237" data-name="Line 1237" x2="172" transform="translate(594.144 538.06) rotate(104)" fill="none" stroke="#5700a3" stroke-linecap="round" stroke-width="3" opacity="0.45"/>
    <line id="Line_1238" data-name="Line 1238" x1="272" transform="translate(615.363 492.157) rotate(108)" fill="none" stroke="#5700a3" stroke-linecap="round" stroke-width="3" opacity="0.21"/>
    <line id="Line_1239" data-name="Line 1239" x1="61" transform="matrix(-0.375, 0.927, -0.927, -0.375, 584.766, 593.217)" fill="none" stroke="#5700a3" stroke-linecap="round" stroke-width="3" opacity="0.94"/>
    <line id="Line_1240" data-name="Line 1240" y1="194.199" x2="1095.167" transform="translate(900.659 171.902) rotate(116)" fill="none" stroke="#5700a3" stroke-linecap="round" stroke-width="3" opacity="0.77"/>
    <line id="Line_1241" data-name="Line 1241" y1="221.498" x2="931.648" transform="translate(902.16 273.459) rotate(120)" fill="none" stroke="#5700a3" stroke-linecap="round" stroke-width="3" opacity="0.41"/>
    <line id="Line_1242" data-name="Line 1242" x2="7" transform="matrix(-0.559, 0.829, -0.829, -0.559, 575.298, 618.603)" fill="none" stroke="#5700a3" stroke-linecap="round" stroke-width="3" opacity="0.92"/>
    <line id="Line_1243" data-name="Line 1243" x2="1290.529" y2="0.453" transform="translate(970.785 113.165) rotate(128)" fill="none" stroke="#5700a3" stroke-linecap="round" stroke-width="3" opacity="0.7"/>
    <line id="Line_1244" data-name="Line 1244" x1="392" transform="translate(704.493 475.842) rotate(132)" fill="none" stroke="#5700a3" stroke-linecap="round" stroke-width="3" opacity="0.4"/>
    <line id="Line_1245" data-name="Line 1245" x1="37" transform="matrix(-0.719, 0.695, -0.695, -0.719, 586.647, 608.651)" fill="none" stroke="#5700a3" stroke-linecap="round" stroke-width="3" opacity="0.78"/>
    <line id="Line_1246" data-name="Line 1246" y1="116.511" x2="1298.331" transform="matrix(-0.766, 0.643, -0.643, -0.766, 1108.076, 248.852)" fill="none" stroke="#5700a3" stroke-linecap="round" stroke-width="3" opacity="0.81"/>
    <line id="Line_1247" data-name="Line 1247" x1="722.471" y1="203.775" transform="translate(925.474 491.601) rotate(144)" fill="none" stroke="#5700a3" stroke-linecap="round" stroke-width="3" opacity="0.98"/>
    <line id="Line_1248" data-name="Line 1248" y1="191.971" x2="1237.757" transform="matrix(-0.848, 0.53, -0.53, -0.848, 1149.045, 374.944)" fill="none" stroke="#5700a3" stroke-linecap="round" stroke-width="3" opacity="0.38"/>
    <line id="Line_1249" data-name="Line 1249" x2="319" transform="translate(714.169 546.617) rotate(152)" fill="none" stroke="#5700a3" stroke-linecap="round" stroke-width="3" opacity="0.75"/>
    <line id="Line_1250" data-name="Line 1250" x1="714.709" y1="141.008" transform="translate(928.477 540.559) rotate(156)" fill="none" stroke="#5700a3" stroke-linecap="round" stroke-width="3" opacity="0.9"/>
    <line id="Line_1251" data-name="Line 1251" x1="96" transform="matrix(-0.94, 0.342, -0.342, -0.94, 618.447, 605.086)" fill="none" stroke="#5700a3" stroke-linecap="round" stroke-width="3" opacity="0.16"/>
    <line id="Line_1252" data-name="Line 1252" x2="814.254" y2="95.56" transform="matrix(-0.961, 0.276, -0.276, -0.961, 977.866, 555.213)" fill="none" stroke="#5700a3" stroke-linecap="round" stroke-width="3" opacity="0.89"/>
    <line id="Line_1253" data-name="Line 1253" x1="862.107" y1="72.079" transform="matrix(-0.978, 0.208, -0.208, -0.978, 1002.469, 567.129)" fill="none" stroke="#5700a3" stroke-linecap="round" stroke-width="3" opacity="0.92"/>
    <line id="Line_1254" data-name="Line 1254" x2="339" transform="translate(741.19 597.908) rotate(172)" fill="none" stroke="#5700a3" stroke-linecap="round" stroke-width="3" opacity="0.65"/>
    <line id="Line_1255" data-name="Line 1255" x1="846.84" y1="24.185" transform="translate(996.572 604.031) rotate(176)" fill="none" stroke="#5700a3" stroke-linecap="round" stroke-width="3" opacity="0.41"/>
    <line id="Line_1256" data-name="Line 1256" x2="199" transform="translate(672.84 621.501) rotate(180)" fill="none" stroke="#5700a3" stroke-linecap="round" stroke-width="3" opacity="0.91"/>
    <line id="Line_1257" data-name="Line 1257" y1="24.185" x2="1035.84" transform="translate(1089.158 669.694) rotate(-176)" fill="none" stroke="#5700a3" stroke-linecap="round" stroke-width="3" opacity="0.51"/>
    <line id="Line_1258" data-name="Line 1258" y1="48.248" x2="870.309" transform="translate(1000.903 705.951) rotate(-172)" fill="none" stroke="#5700a3" stroke-linecap="round" stroke-width="3" opacity="0.1"/>
    <line id="Line_1259" data-name="Line 1259" x2="157" transform="matrix(-0.978, -0.208, 0.208, -0.978, 650.122, 637.821)" fill="none" stroke="#5700a3" stroke-linecap="round" stroke-width="3" opacity="0.79"/>
    <line id="Line_1260" data-name="Line 1260" y1="95.56" x2="890.254" transform="matrix(-0.961, -0.276, 0.276, -0.961, 988.056, 790.124)" fill="none" stroke="#5700a3" stroke-linecap="round" stroke-width="3" opacity="0.22"/>
    <line id="Line_1261" data-name="Line 1261" y1="118.573" x2="920.777" transform="matrix(-0.94, -0.342, 0.342, -0.94, 985.688, 834.676)" fill="none" stroke="#5700a3" stroke-linecap="round" stroke-width="3" opacity="0.68"/>
    <line id="Line_1262" data-name="Line 1262" x1="180" transform="translate(655.558 658.102) rotate(-156)" fill="none" stroke="#5700a3" stroke-linecap="round" stroke-width="3" opacity="0.33"/>
    <line id="Line_1263" data-name="Line 1263" y1="162.757" x2="912.103" transform="translate(937.806 907.456) rotate(-152)" fill="none" stroke="#5700a3" stroke-linecap="round" stroke-width="3" opacity="0.73"/>
    <line id="Line_1264" data-name="Line 1264" x2="1186.757" y2="191.971" transform="matrix(-0.848, -0.53, 0.53, -0.848, 1025.691, 1017.342)" fill="none" stroke="#5700a3" stroke-linecap="round" stroke-width="3" opacity="0.23"/>
    <line id="Line_1265" data-name="Line 1265" x2="1211.859" y2="154.617" transform="translate(1018.11 1040.2) rotate(-144)" fill="none" stroke="#5700a3" stroke-linecap="round" stroke-width="3" opacity="0.33"/>
    <line id="Line_1266" data-name="Line 1266" x1="350" transform="matrix(-0.766, -0.643, 0.643, -0.766, 707.401, 733.991)" fill="none" stroke="#5700a3" stroke-linecap="round" stroke-width="3" opacity="0.91"/>
    <line id="Line_1267" data-name="Line 1267" x1="1172.116" y1="77.84" transform="matrix(-0.719, -0.695, 0.695, -0.719, 967.881, 1056.607)" fill="none" stroke="#5700a3" stroke-linecap="round" stroke-width="3" opacity="0.58"/>
    <line id="Line_1268" data-name="Line 1268" x2="1170.192" y2="38.79" transform="translate(950.432 1069.288) rotate(-132)" fill="none" stroke="#5700a3" stroke-linecap="round" stroke-width="3" opacity="0.81"/>
    <line id="Line_1269" data-name="Line 1269" x1="128" transform="translate(612.743 671.935) rotate(-128)" fill="none" stroke="#5700a3" stroke-linecap="round" stroke-width="3" opacity="0.79"/>
    <line id="Line_1270" data-name="Line 1270" x2="915.264" y2="247.721" transform="matrix(-0.559, -0.829, 0.829, -0.559, 726.561, 1070.157)" fill="none" stroke="#5700a3" stroke-linecap="round" stroke-width="3" opacity="0.75"/>
    <line id="Line_1271" data-name="Line 1271" x1="773.648" y1="221.498" transform="translate(670.843 1011.874) rotate(-120)" fill="none" stroke="#5700a3" stroke-linecap="round" stroke-width="3" opacity="0.25"/>
    <line id="Line_1272" data-name="Line 1272" x1="25" transform="translate(578.818 632.739) rotate(-116)" fill="none" stroke="#5700a3" stroke-linecap="round" stroke-width="3" opacity="0.17"/>
    <line id="Line_1273" data-name="Line 1273" x2="1010.742" y2="165.953" transform="matrix(-0.375, -0.927, 0.927, -0.375, 685.717, 1121.154)" fill="none" stroke="#5700a3" stroke-linecap="round" stroke-width="3" opacity="0.3"/>
    <line id="Line_1274" data-name="Line 1274" x2="70" transform="translate(584.156 654.783) rotate(-108)" fill="none" stroke="#5700a3" stroke-linecap="round" stroke-width="3" opacity="0.57"/>
    <line id="Line_1275" data-name="Line 1275" x2="1099.84" y2="107.17" transform="translate(654.387 1168.049) rotate(-104)" fill="none" stroke="#5700a3" stroke-linecap="round" stroke-width="3" opacity="0.34"/>
    <line id="Line_1276" data-name="Line 1276" x1="889.268" y1="76.927" transform="translate(612.672 1066.058) rotate(-100)" fill="none" stroke="#5700a3" stroke-linecap="round" stroke-width="3" opacity="0.54"/>
    <line id="Line_1277" data-name="Line 1277" x1="770.574" y1="46.307" transform="translate(590.585 1007.096) rotate(-96)" fill="none" stroke="#5700a3" stroke-linecap="round" stroke-width="3" opacity="0.93"/>
    <line id="Line_1278" data-name="Line 1278" x1="44" transform="translate(574.107 643.487) rotate(-92)" fill="none" stroke="#5700a3" stroke-linecap="round" stroke-width="3" opacity="0.57"/>
    <line id="Line_1279" data-name="Line 1279" y1="15.461" x2="1083.73" transform="translate(546.703 1162.765) rotate(-88)" fill="none" stroke="#5700a3" stroke-linecap="round" stroke-width="3" opacity="0.92"/>
    <line id="Line_1280" data-name="Line 1280" y1="46.307" x2="841.574" transform="translate(506.328 1037.562) rotate(-84)" fill="none" stroke="#5700a3" stroke-linecap="round" stroke-width="3" opacity="0.41"/>
    <line id="Line_1281" data-name="Line 1281" x2="13" transform="translate(572.214 627.901) rotate(-80)" fill="none" stroke="#5700a3" stroke-linecap="round" stroke-width="3" opacity="0.86"/>
    <line id="Line_1282" data-name="Line 1282" x1="299" transform="translate(537.174 766.555) rotate(-76)" fill="none" stroke="#5700a3" stroke-linecap="round" stroke-width="3" opacity="0.35"/>
    <line id="Line_1283" data-name="Line 1283" x1="802.316" y2="136.895" transform="translate(384.281 981.873) rotate(-72)" fill="none" stroke="#5700a3" stroke-linecap="round" stroke-width="3" opacity="0.32"/>
    <line id="Line_1284" data-name="Line 1284" x1="785.742" y2="165.953" transform="matrix(0.375, -0.927, 0.927, 0.375, 349.232, 954.681)" fill="none" stroke="#5700a3" stroke-linecap="round" stroke-width="3" opacity="0.62"/>
    <line id="Line_1285" data-name="Line 1285" y1="194.199" x2="815.167" transform="translate(307.391 945.267) rotate(-64)" fill="none" stroke="#5700a3" stroke-linecap="round" stroke-width="3" opacity="0.65"/>
    <line id="Line_1286" data-name="Line 1286" x1="71" transform="translate(555.593 652.241) rotate(-60)" fill="none" stroke="#5700a3" stroke-linecap="round" stroke-width="3" opacity="0.53"/>
    <line id="Line_1287" data-name="Line 1287" x2="241" transform="matrix(0.559, -0.829, 0.829, 0.559, 505.957, 721.396)" fill="none" stroke="#5700a3" stroke-linecap="round" stroke-width="3" opacity="0.24"/>
    <line id="Line_1288" data-name="Line 1288" x2="65" transform="translate(553.33 647.11) rotate(-52)" fill="none" stroke="#5700a3" stroke-linecap="round" stroke-width="3" opacity="0.1"/>
    <line id="Line_1289" data-name="Line 1289" x1="2" transform="translate(572.668 622.246) rotate(-48)" fill="none" stroke="#5700a3" stroke-linecap="round" stroke-width="3" opacity="0.71"/>
    <line id="Line_1290" data-name="Line 1290" x2="295" transform="matrix(0.719, -0.695, 0.695, 0.719, 467.238, 723.962)" fill="none" stroke="#5700a3" stroke-linecap="round" stroke-width="3" opacity="0.22"/>
    <line id="Line_1291" data-name="Line 1291" x1="55" transform="matrix(0.766, -0.643, 0.643, 0.766, 552.273, 639.172)" fill="none" stroke="#5700a3" stroke-linecap="round" stroke-width="3" opacity="0.09"/>
    <line id="Line_1292" data-name="Line 1292" x2="77" transform="translate(542.198 644.129) rotate(-36)" fill="none" stroke="#5700a3" stroke-linecap="round" stroke-width="3" opacity="0.53"/>
    <line id="Line_1293" data-name="Line 1293" x2="823.004" y2="183.714" transform="matrix(0.848, -0.53, 0.53, 0.848, 175.692, 761.666)" fill="none" stroke="#5700a3" stroke-linecap="round" stroke-width="3" opacity="0.27"/>
    <line id="Line_1294" data-name="Line 1294" x2="865.103" y2="162.757" transform="translate(153.216 752.721) rotate(-28)" fill="none" stroke="#5700a3" stroke-linecap="round" stroke-width="3" opacity="0.93"/>
    <line id="Line_1295" data-name="Line 1295" x1="308" transform="translate(432.658 684.139) rotate(-24)" fill="none" stroke="#5700a3" stroke-linecap="round" stroke-width="3" opacity="0.43"/>
    <line id="Line_1296" data-name="Line 1296" x2="1013.777" y2="118.573" transform="matrix(0.94, -0.342, 0.342, 0.94, 76.745, 739.154)" fill="none" stroke="#5700a3" stroke-linecap="round" stroke-width="3" opacity="0.09"/>
    <line id="Line_1297" data-name="Line 1297" x2="932.254" y2="95.56" transform="matrix(0.961, -0.276, 0.276, 0.961, 112.103, 704.052)" fill="none" stroke="#5700a3" stroke-linecap="round" stroke-width="3" opacity="0.64"/>
    <line id="Line_1298" data-name="Line 1298" x1="128" transform="matrix(0.978, -0.208, 0.208, 0.978, 510.739, 634.809)" fill="none" stroke="#5700a3" stroke-linecap="round" stroke-width="3" opacity="0.91"/>
  </g>
</svg>
