<svg id="Icon_akar-css-fill" data-name="Icon akar-css-fill" xmlns="http://www.w3.org/2000/svg" width="107.493" height="143.324" viewBox="0 0 107.493 143.324">
  <path id="Path_77" data-name="Path 77" d="M11.253,0h15.4V6.438H17.691v6.438h8.958v6.438h-15.4ZM29.724,0h15.4V5.6H36.167V6.718h8.958V19.594h-15.4V13.717h8.958V12.595H29.724ZM48.207,0H63.6V5.6H54.638V6.718H63.6V19.594H48.207V13.717h8.958V12.595H48.207Z" transform="translate(15.632)" fill="#fff"/>
  <path id="Path_78" data-name="Path 78" d="M58.193,122.23,16.724,110.716,4.5,7.076H111.993L99.774,110.7ZM28.668,53.99,29.809,66.7H73.863L72.388,83.18,58.211,87.014H58.2L44.045,83.192l-.908-10.134H30.376l1.78,19.958,26.037,7.226,26.079-7.226L87.449,57.4l.311-3.41,2.293-25.733H26.381l1.159,12.714H76.126L74.968,53.99h-46.3Z" transform="translate(-4.5 21.094)" fill="#fff"/>
</svg>
