<svg xmlns="http://www.w3.org/2000/svg" width="96.605" height="96.632" viewBox="0 0 96.605 96.632">
  <path id="pencil-solid" d="M77.523,43.6l2.135-2.135-6.4-6.4L61.521,23.33l-6.4-6.4L52.982,19.06l-4.27,4.27L11.078,60.964a16.755,16.755,0,0,0-4.194,7.066L.2,90.776a4.479,4.479,0,0,0,1.152,4.478,4.574,4.574,0,0,0,4.478,1.152l22.728-6.688a16.755,16.755,0,0,0,7.066-4.194L73.254,47.89ZM30.235,75.416,28.516,79.7A7.968,7.968,0,0,1,26,81.009L11.229,85.354,15.575,70.6a7.248,7.248,0,0,1,1.3-2.513l4.289-1.719v6.046a3.032,3.032,0,0,0,3.023,3.023h6.046ZM68.53,3.492,65.81,6.232,61.54,10.5l-2.154,2.135,6.4,6.4L77.523,30.773l6.4,6.4,2.135-2.135,4.27-4.27,2.739-2.739a12.087,12.087,0,0,0,0-17.1L85.647,3.492a12.087,12.087,0,0,0-17.1,0ZM59.575,35.232,32.37,62.437a3.019,3.019,0,0,1-4.27-4.27L55.306,30.962a3.019,3.019,0,0,1,4.27,4.27Z" transform="translate(-0.009 0.05)" fill="#fff"/>
</svg>
