<svg xmlns="http://www.w3.org/2000/svg" width="143.477" height="114.815" viewBox="0 0 143.477 114.815">
  <path id="code-solid_1_" data-name="code-solid (1)" d="M88.086.227a7.181,7.181,0,0,0-8.878,4.932L50.509,105.6a7.182,7.182,0,0,0,13.811,3.946L93.018,9.105A7.181,7.181,0,0,0,88.086.227Zm18.071,26.927a7.185,7.185,0,0,0,0,10.156l20.021,20.044L106.134,77.4A7.182,7.182,0,1,0,116.29,87.553L141.4,62.443a7.185,7.185,0,0,0,0-10.156L116.29,27.176a7.185,7.185,0,0,0-10.156,0Zm-68.762,0a7.185,7.185,0,0,0-10.156,0L2.127,52.264a7.185,7.185,0,0,0,0,10.156L27.237,87.531A7.182,7.182,0,1,0,37.394,77.375L17.35,57.353,37.394,37.31a7.185,7.185,0,0,0,0-10.156Z" transform="translate(-0.025 0.054)" fill="#fff"/>
</svg>
