<svg xmlns="http://www.w3.org/2000/svg" width="105.599" height="96.684" viewBox="0 0 105.599 96.684">
  <path id="Icon_akar-github-fill" data-name="Icon akar-github-fill" d="M52.8,0C23.628,0,0,22.18,0,49.565,0,71.5,15.114,90.022,36.1,96.589c2.64.434,3.63-1.053,3.63-2.354,0-1.177-.066-5.08-.066-9.231C26.4,87.3,22.968,81.968,21.912,79.18c-.594-1.425-3.168-5.824-5.412-7-1.848-.929-4.488-3.222-.066-3.284,4.158-.062,7.128,3.593,8.118,5.08,4.752,7.5,12.342,5.39,15.378,4.089A10.205,10.205,0,0,1,43.3,71.435C31.548,70.2,19.272,65.921,19.272,46.963a18.647,18.647,0,0,1,5.412-13.321c-.528-1.239-2.376-6.32.528-13.135,0,0,4.422-1.3,14.52,5.08a52.916,52.916,0,0,1,26.4,0c10.1-6.443,14.52-5.08,14.52-5.08,2.9,6.815,1.056,11.9.528,13.135a18.54,18.54,0,0,1,5.412,13.321c0,19.02-12.342,23.233-24.09,24.473,1.914,1.549,3.564,4.523,3.564,9.169,0,6.629-.066,11.957-.066,13.63,0,1.3.99,2.85,3.63,2.354,21.492-6.812,35.963-25.73,35.97-47.025C105.6,22.18,81.971,0,52.8,0Z" fill="#fff"/>
</svg>
