<svg xmlns="http://www.w3.org/2000/svg" width="97.743" height="130.324" viewBox="0 0 97.743 130.324">
  <g id="Icon_akar-html-fill" data-name="Icon akar-html-fill" transform="translate(-4.5)">
    <path id="Path_75" data-name="Path 75" d="M7.62,0H13.5V5.8h5.376V0h5.875V17.572H18.871V11.691H13.5v5.881H7.625V0ZM32.468,5.827H27.3V0h16.22V5.827H38.344V17.572H32.468ZM46.093,0h6.125l3.769,6.174L59.749,0h6.125V17.572H60.026V8.862l-4.04,6.25h-.1L51.838,8.867v8.7H46.093V0ZM68.8,0h5.881V11.767h8.254v5.81H68.8V0Z" transform="translate(8.175)" fill="#fff"/>
    <path id="Path_76" data-name="Path 76" d="M15.61,101.316,4.5,7.076h97.743L91.127,101.3l-37.81,10.48ZM38.075,49.729,37.021,37.892H81.25l1.032-11.555H24.4L27.513,61.29H67.571L66.23,76.277,53.339,79.763h-.011L40.458,76.288l-.825-9.215H28.023l1.618,18.148,23.675,6.57,23.713-6.57,2.889-32.385.282-3.1H38.075Z" transform="translate(0 18.539)" fill="#fff"/>
  </g>
</svg>
