<svg xmlns="http://www.w3.org/2000/svg" width="107" height="107" viewBox="0 0 107 107">
  <path id="Icon_akar-javascript-fill" data-name="Icon akar-javascript-fill" d="M0,0H107V107H0ZM81.8,89.7c-4.962,0-7.766-2.586-9.92-6.108l-8.172,4.748c2.951,5.831,8.984,10.281,18.324,10.281,9.55,0,16.661-4.958,16.661-14.013,0-8.4-4.824-12.127-13.366-15.8L82.809,67.74c-4.316-1.872-6.184-3.09-6.184-6.108,0-2.439,1.872-4.307,4.815-4.307,2.885,0,4.744,1.217,6.469,4.307l7.829-5.025c-3.313-5.827-7.9-8.052-14.3-8.052-8.979,0-14.726,5.742-14.726,13.286,0,8.181,4.815,12.055,12.073,15.145L81.3,78.065c4.588,2.006,7.321,3.228,7.321,6.674,0,2.88-2.662,4.962-6.826,4.962Zm-38.966-.067c-3.455,0-4.9-2.363-6.474-5.172l-8.185,4.958c2.372,5.02,7.035,9.184,15.083,9.184,8.912,0,15.016-4.739,15.016-15.149V49.126H48.217v34.2c0,5.025-2.086,6.313-5.39,6.313Z" fill="#fff"/>
</svg>
