<svg xmlns="http://www.w3.org/2000/svg" width="63.969" height="61.103" viewBox="0 0 63.969 61.103">
  <path id="linkedin_1_" data-name="linkedin (1)" d="M59.4,32H4.555A4.487,4.487,0,0,0,0,36.405V88.7A4.487,4.487,0,0,0,4.555,93.1H59.4A4.5,4.5,0,0,0,63.969,88.7V36.405A4.5,4.5,0,0,0,59.4,32ZM19.334,84.374H9.852V55.214h9.5v29.16ZM14.593,51.231a5.257,5.257,0,1,1,0-10.5,5.257,5.257,0,1,1,0,10.5ZM54.874,84.374H45.392V70.189c0-3.382-.071-7.733-4.926-7.733-4.94,0-5.7,3.683-5.7,7.488v14.43H25.288V55.214h9.1V59.2h.129a10.08,10.08,0,0,1,8.981-4.705c9.6,0,11.38,6.042,11.38,13.9Z" transform="translate(0 -32)" fill="#fff"/>
</svg>
