<svg xmlns="http://www.w3.org/2000/svg" width="180.762" height="95.069" viewBox="0 0 180.762 95.069">
  <g id="Group_17" data-name="Group 17" transform="translate(-366.75 -1644.042)">
    <path id="php-brands-solid" d="M90.381,19.215c48.41,0,85.636,20.392,85.636,42.79s-37.254,42.79-85.636,42.79c-48.41,0-85.636-20.392-85.636-42.79S42,19.215,90.381,19.215m0-4.745C40.474,14.47,0,35.738,0,62.005S40.474,109.54,90.381,109.54s90.381-21.268,90.381-47.535S140.288,14.47,90.381,14.47ZM61.628,58.192C59.4,69.631,51.517,68.445,41.829,68.445L45.7,48.5c10.733,0,18.02-1.158,15.93,9.688ZM27.51,88.639H37.875l2.457-12.653c11.608,0,18.811.847,25.476-5.395,7.372-6.779,9.292-18.839,4.039-24.883-2.74-3.163-7.146-4.717-13.133-4.717H36.745ZM79.959,28.31H90.268L87.811,40.963c8.9,0,17.144-.65,21.127,3.022,4.18,3.841,2.175,8.756-2.344,31.944H96.143c4.35-22.426,5.169-24.29,3.587-25.985-1.525-1.638-5-1.3-13.388-1.3l-5.31,27.284H70.723L79.959,28.31Zm62.674,29.882c-2.26,11.608-10.366,10.253-19.8,10.253L126.7,48.5c10.789,0,18.02-1.158,15.93,9.688ZM108.514,88.639h10.394l2.457-12.653c12.2,0,18.952.706,25.476-5.395,7.372-6.779,9.292-18.839,4.039-24.883-2.74-3.163-7.146-4.717-13.133-4.717H117.778Z" transform="translate(366.75 1629.571)" fill="#fff"/>
  </g>
</svg>
