<svg id="seo" xmlns="http://www.w3.org/2000/svg" width="154" height="78.946" viewBox="0 0 154 78.946">
  <g id="Group_6" data-name="Group 6" transform="translate(0 2.414)">
    <path id="Path_79" data-name="Path 79" d="M32.524,26.442a86.779,86.779,0,0,0-10.783-2.95c-5.266-1.158-7.56-2.163-8.554-2.808A3.594,3.594,0,0,1,11.5,17.363,4.732,4.732,0,0,1,13.82,13.2c1.737-1.191,4.294-1.792,7.615-1.792,8.9,0,10.4,4.337,10.761,7.593l.164,1.464h9.614l-.076-1.7c-.229-5.255-2.283-9.4-6.129-12.3-3.725-2.819-8.642-4.25-14.607-4.25S10.772,3.641,7.254,6.449a13.793,13.793,0,0,0-5.463,11.22,12.428,12.428,0,0,0,4.294,9.843c2.72,2.36,6.981,4.141,13.023,5.419,5.528,1.18,9.439,2.371,11.635,3.54a4.677,4.677,0,0,1,2.633,4.545,5.369,5.369,0,0,1-2.666,4.84,14.167,14.167,0,0,1-8.019,2,16.454,16.454,0,0,1-9.1-2.414,8.72,8.72,0,0,1-3.9-7.025L9.559,36.93H0l.066,1.7A18.191,18.191,0,0,0,6.1,51.941c3.78,3.42,9.461,5.157,16.879,5.157,5.856,0,10.707-1.562,14.41-4.632A14.947,14.947,0,0,0,43.1,40.513a13.062,13.062,0,0,0-3.223-9.2,18.711,18.711,0,0,0-7.342-4.873Z" transform="translate(0 -2.21)" fill="#fff"/>
    <path id="Path_80" data-name="Path 80" d="M54.736,33.362H82.267v-9.2H54.736V12.189H84.179V2.99H44.86V56.173H85.337v-9.21h-30.6Z" transform="translate(4.15 -2.138)" fill="#fff"/>
  </g>
  <g id="Group_7" data-name="Group 7" transform="translate(87.052 0)">
    <path id="Path_81" data-name="Path 81" d="M114.929,62.644h0a31.321,31.321,0,1,1,26.176-14.093,31.234,31.234,0,0,1-26.176,14.093Zm.055-51.719a20.4,20.4,0,1,0,11.2,3.365,20.354,20.354,0,0,0-11.2-3.365Z" transform="translate(-79.316 0)" fill="#fff"/>
    <rect id="Rectangle_19" data-name="Rectangle 19" width="27.64" height="18.059" rx="6" transform="matrix(0.55, -0.835, 0.835, 0.55, 0, 69.01)" fill="#fff"/>
  </g>
</svg>
