<svg xmlns="http://www.w3.org/2000/svg" width="116.179" height="116.179" viewBox="0 0 116.179 116.179">
  <path id="wordpress-brands-solid" d="M20.578,45.8l23.774,65.116A49.842,49.842,0,0,1,20.578,45.8ZM99.725,63.583a26.278,26.278,0,0,0-4.1-13.749c-2.53-4.1-4.9-7.589-4.9-11.688,0-4.591,3.467-8.854,8.362-8.854.211,0,.422.023.656.047a49.826,49.826,0,0,0-75.305,9.369c1.171.047,2.272.07,3.209.07,5.2,0,13.281-.632,13.281-.632a2.056,2.056,0,0,1,.328,4.1s-2.694.3-5.692.468L53.722,96.68l10.915-32.7L56.884,42.713c-2.694-.164-5.223-.468-5.223-.468-2.694-.164-2.366-4.263.3-4.1,0,0,8.222.632,13.117.632,5.2,0,13.281-.632,13.281-.632a2.056,2.056,0,0,1,.328,4.1s-2.694.3-5.692.468L91.012,96.282l4.966-16.607c2.108-6.886,3.748-11.829,3.748-16.092ZM66.956,70.446,52.012,113.9a49.652,49.652,0,0,0,30.614-.8,3.732,3.732,0,0,1-.351-.679ZM109.82,42.174a38.822,38.822,0,0,1,.328,5.13,46.813,46.813,0,0,1-3.795,17.848L91.129,109.164a49.881,49.881,0,0,0,18.692-66.99Zm14.358,23.915A58.089,58.089,0,1,1,66.089,8,58.154,58.154,0,0,1,124.179,66.089Zm-2.67,0a55.419,55.419,0,1,0-55.419,55.419A55.485,55.485,0,0,0,121.508,66.089Z" transform="translate(-8 -8)" fill="#fff"/>
</svg>
